PathFileType	4	(X/Y/Z)	53_2_11_p0_0-229_filt_butterworth.trc
DataRate	CameraRate	NumFrames	NumMarkers	Units	OrigDataRate	OrigDataStartFrame	OrigNumFrames
44.0	44.0	6	27	m	44.0	57	229
Frame#	Time	RHip			RKnee			RAnkle			RBigToe			RSmallToe			RHeel			LHip			LKnee			LAnkle			LBigToe			LSmallToe			LHeel			Neck			Head			Nose			RShoulder			RElbow			RWrist			RThumb			RIndex			RPinky			LShoulder			LElbow			LWrist			LThumb			LIndex			LPinky			
		X1	Y1	Z1	X2	Y2	Z2	X3	Y3	Z3	X4	Y4	Z4	X5	Y5	Z5	X6	Y6	Z6	X7	Y7	Z7	X8	Y8	Z8	X9	Y9	Z9	X10	Y10	Z10	X11	Y11	Z11	X12	Y12	Z12	X13	Y13	Z13	X14	Y14	Z14	X15	Y15	Z15	X16	Y16	Z16	X17	Y17	Z17	X18	Y18	Z18	X19	Y19	Z19	X20	Y20	Z20	X21	Y21	Z21	X22	Y22	Z22	X23	Y23	Z23	X24	Y24	Z24	X25	Y25	Z25	X26	Y26	Z26	X27	Y27	Z27	
57	1.2954545454545454	0.3647511137780569	0.5587649277351348	0.6267574990883475	0.3437890184843051	0.6880967353652515	1.0696530625791847	0.33844767049917723	0.8654856849227528	1.5145555649109192	0.2875087384220266	0.6514646208079384	1.5326304347501383	0.34622691944300993	0.708932867111294	1.5573553511305687	0.32474975604417633	1.0016612639887752	1.5953921554822408	0.16710822667243974	0.6167888459190474	0.616314928354886	0.15732533870909388	0.7619780511266175	1.078231884632188	0.14287176912836808	0.8856890522589081	1.4972914611608443	0.15106308862210413	0.682322275887461	1.5265426737504006	0.10163025044142424	0.7569691520479167	1.541306734907794	0.165571747969809	0.9452090348973197	1.5644054538698442	0.2999260518271166	0.49290777398109215	0.04827703920076145	0.3126877296616825	0.39128776806609056	-0.16758812071885104	0.2950814312269588	0.35091552429484163	-0.03512816009575829	0.4474302753530751	0.4859565183961017	0.1463351743675039	0.6049891459486438	0.6079747916172433	0.3953174077964998	0.4196128948236107	0.42486412476224705	0.39950148511543837	0.2727800884595078	0.34731808158946625	0.3368296231749928	0.25750369491906355	0.2735269681763126	0.3513525556845698	0.2703709585650437	0.3448781301201702	0.42021064269717967	0.13826371512849345	0.5226832232614051	0.13547651934903382	-0.043776068668594306	0.5893512698296888	0.3304925495166746	0.11935747938553473	0.4059705396490917	0.36642425143817564	0.2306343224586009	0.3694929653297837	0.329173123652198	0.24523591234653372	0.39288235637701596	0.3690683811032758	0.22122175066153038	0.37029617514735047	0.4379081487370856
58	1.318181818181818	0.3645272866405454	0.5584037254310874	0.6266347536092407	0.34575693421455916	0.6917348114103806	1.0715828874333442	0.338429295233516	0.8655117380575346	1.5144999094743208	0.28763465741161154	0.6518987324542741	1.5339677131507976	0.3460939211244688	0.708775310038972	1.5573533061994076	0.3246721265163972	1.0019230601795441	1.5949859160902602	0.1673292520355486	0.6180667347759868	0.6181319306826324	0.15725687225310359	0.7614403016354782	1.0775131815327281	0.1433623436078502	0.8880225555932646	1.497434306241169	0.15106237621236038	0.6823325378153089	1.5265733218538537	0.10186896143117553	0.7580267386106541	1.5438053790673019	0.16556392810181722	0.9459621378706964	1.5651333210991698	0.3010324086549591	0.4927643045231092	0.047913513540067704	0.3128242073123034	0.39160338026838026	-0.1684360766621598	0.2951106731909765	0.3508096184813101	-0.03537696892117342	0.4487517519850561	0.4860896873081223	0.14648766203410668	0.6063308899628679	0.5997606247098171	0.3950994271530397	0.4161247266128275	0.4212793331733086	0.39802998684179963	0.26963168558955974	0.33775696898917146	0.3345003250568009	0.2530977050680506	0.2718703781187496	0.35035844211829914	0.265066719057852	0.349987855558086	0.41706590715160474	0.14012899359367595	0.526881288457469	0.13337308186765712	-0.04731550012299714	0.575291860382801	0.3269511174267675	0.12270565306595374	0.3973552699900532	0.3635645955103936	0.23054774977706705	0.3624829592980052	0.3282114881128789	0.24715214991034085	0.3983285382790409	0.36897259735380333	0.22152786417924103	0.3709958847773015	0.4347468549851604
59	1.3409090909090908	0.36452853274656655	0.5591474325409092	0.6264647324950348	0.34712535436248226	0.6973289116193814	1.0725762585636665	0.3384453734280243	0.8656110605986893	1.5145302567636543	0.2877577163323682	0.6520556944061914	1.5342034777479343	0.34617391139019055	0.7090661272354346	1.5574390563625773	0.32445800195172786	1.002848412341552	1.5930787357214342	0.16834611589836246	0.6210208476791984	0.6210787993121631	0.15716863012516985	0.7606865522841684	1.0761730534781135	0.14381670649396805	0.8907748173750103	1.497044702760763	0.1510518824654473	0.6821828249056624	1.526572596435989	0.1019399393877356	0.7586997021486316	1.5454129578356675	0.16529703890696443	0.9448882320191545	1.564714754714358	0.3028393509194898	0.49285777894155675	0.04774632532087665	0.31379833329122464	0.3948060456551355	-0.17056155843895915	0.29511112889682917	0.3508756391616981	-0.03513247549819825	0.45094117287067437	0.4863770998691395	0.1465135592759555	0.6077638150543385	0.5879417330732359	0.3949979238167041	0.41134226539465113	0.4124780137214446	0.3974070534824294	0.2691069199579261	0.319762932684382	0.3337410460686808	0.2525528607291548	0.26979301690401686	0.352798094716237	0.25903046203258767	0.3498882410247197	0.416709735377224	0.14045752026030903	0.5275616796561626	0.13234861414792473	-0.051081067495509745	0.5596143050383513	0.32460537035469633	0.12769096000183608	0.3991417550758251	0.3612297526745699	0.23075447427302292	0.3629676594687581	0.32974847551067205	0.24726919868705738	0.40168363823032965	0.36974079262475606	0.2240399548817688	0.37251453325722395	0.43353180768468247
60	1.3636363636363635	0.3646286008185883	0.5594934934032341	0.6263375834872013	0.3474756136076895	0.7013647821854135	1.0725872876074019	0.33849417538156223	0.8656961930782122	1.5145353349556219	0.287978452803651	0.6523076975660095	1.534131975844828	0.34644394406467693	0.7097245297143392	1.5575459123016613	0.32453798405143985	1.0024993577060566	1.5910341866475242	0.17013179466812128	0.6245858158695095	0.6228871092147032	0.1570225629685374	0.7609039168205374	1.0766708664869933	0.14411690455745071	0.8931026980586817	1.4972384212017449	0.15107392735944689	0.6819787641055964	1.5265547542836009	0.10197257896497068	0.758712957506321	1.5456261893138212	0.1650144135006264	0.9438273025633551	1.5643193581434778	0.3040775305022349	0.49251104843011284	0.04773443070921688	0.3152824873419457	0.39985434938423325	-0.17337610154744146	0.29508770393183714	0.3511200959887119	-0.034176686586546656	0.4522003735570752	0.4877981366532632	0.14653689291037694	0.6094110507066297	0.5721162374518185	0.39497480586258343	0.40643314404574415	0.40692641742921215	0.39739009877065773	0.2678831887870706	0.30359340127626044	0.3349956976391964	0.25341866532003765	0.26557959851218926	0.3569211455487645	0.2546585984492493	0.34253729295920243	0.4173398509718325	0.14010783684261616	0.5267940804334412	0.13230685938164227	-0.055288498412875725	0.5450929415949035	0.32380447703612725	0.13001806104836452	0.40082000603104123	0.3588912362558407	0.23174014655031283	0.37017298292049	0.33409933208801745	0.24629357121505158	0.40031116826957114	0.3720166791443345	0.22454639858739017	0.36762137107161796	0.43399470711134586
61	1.3863636363636365	0.3643591325440311	0.5595321123225451	0.6266670275854712	0.34734217580725685	0.7023268671468261	1.0722268853246975	0.33853503023944054	0.8657222576813319	1.5145180225220845	0.28811726806405774	0.6525237168860725	1.5341256662558158	0.3468020327314205	0.7104309380267637	1.5575799882031345	0.3257498239051963	0.9973726455959381	1.5905732005995634	0.171484335911231	0.626236871114058	0.6237854078089029	0.1568724866909288	0.7622213733737941	1.079640932772585	0.14493035218079242	0.8934088194755045	1.4988215480515876	0.15110463615758724	0.6818547503592716	1.5265491018238357	0.10199747810013148	0.7584978947717412	1.5453919145284671	0.16494503583852343	0.9429450083332188	1.5633832074478062	0.30399875620005834	0.4931698533352348	0.04871585348296781	0.3161948094071541	0.40295705618757666	-0.17582929197588237	0.29507525671755563	0.3516835430860915	-0.03272856955351441	0.4515750395179283	0.4922188752454441	0.14649482290349952	0.6109710940976741	0.5575197092000473	0.3947884687524543	0.405118464166914	0.41289631924651393	0.39758752625480953	0.26700392444192406	0.3024553701429433	0.33801024704211347	0.25398488041866263	0.2688174569036851	0.3619759328443962	0.2547246848293015	0.3458527749927588	0.41756655591504077	0.14012277179429844	0.5273399811171919	0.13252868758648378	-0.05885808181592969	0.5368311278478151	0.3242704225315888	0.1313630611464033	0.39880648021160664	0.3574032652129757	0.23456977922859373	0.38100692808039915	0.33978387488089645	0.2466959161133039	0.40212893686783346	0.3757944657015406	0.22165301410012414	0.3591810034271295	0.43423932816219263
62	1.4090909090909092	0.3634809496680468	0.5594788225696558	0.6277702524290305	0.3474827049748793	0.7019800793600134	1.072382434164457	0.33854198658259393	0.8656625127628503	1.5144793452382785	0.2881254677978267	0.6525149137605196	1.5341182455261457	0.3469839467977357	0.7105485448846319	1.5575051396061477	0.3277621268297289	0.9888215186780458	1.5902866936210085	0.17177226238703946	0.6266765334272134	0.6246929128580809	0.15677066788588376	0.7632974740726649	1.0821839535789177	0.14627364386983766	0.889268860289821	1.5012510265791428	0.1511163274996284	0.681830273206905	1.5265677392003825	0.10199408354720038	0.758407668185099	1.5453092424017159	0.16522478818813202	0.9422937766124131	1.5619473896889755	0.3027106282812503	0.4975686048789264	0.050882387215190276	0.3162984454366602	0.40275004471998105	-0.17726334633211183	0.2950686371026016	0.35244142464788025	-0.031784271946900096	0.4500875028833276	0.4983410268951859	0.14622486185408531	0.6120971767347951	0.5474652926843704	0.39440448394307037	0.40622714614571653	0.42216340014646736	0.39770252406761086	0.268391821997003	0.3145298978147654	0.3412374234769675	0.25354137051480663	0.27995262590345366	0.3664722230060966	0.2576556174511848	0.3630104820800318	0.4173747997247088	0.14104410740926526	0.5311635595295237	0.13216582046468317	-0.06130081365237879	0.5339384460359267	0.3238399703666324	0.1339646747955316	0.39741675512215424	0.35856803259615827	0.23768572663635357	0.3887669325075089	0.3442460699911203	0.24738628770274362	0.40800425634643256	0.379662773821698	0.21784155710389858	0.35460123247958203	0.43378051296420134
